{
  "asset": {
    "version": "2.0",
    "generator": "Sketchup glTF Exporter v1.2.6 by Centaur"
  },
  "scene": 0,
  "scenes": [
    {
      "nodes": [
        0
      ]
    }
  ],
  "samplers": [
    {
    }
  ],
  "nodes": [
    {
      "name": "root",
      "mesh": 0
    }
  ],
  "materials": [
    {
      "pbrMetallicRoughness": {
        "baseColorTexture": {
          "index": 0
        },
        "metallicFactor": 0.1,
        "roughnessFactor": 0.9
      },
      "name": "Cladding Stucco White"
    },
    {
      "pbrMetallicRoughness": {
        "baseColorFactor": [
          0.2176,
          0.2176,
          0.2176,
          1.0
        ],
        "metallicFactor": 0.1,
        "roughnessFactor": 0.9
      },
      "name": "default material",
      "doubleSided": true
    }
  ],
  "images": [
    {
      "bufferView": 0,
      "mimeType": "image/jpeg"
    }
  ],
  "textures": [
    {
      "source": 0,
      "sampler": 0
    }
  ],
  "meshes": [
    {
      "primitives": [
        {
          "attributes": {
            "POSITION": 2,
            "NORMAL": 3,
            "TEXCOORD_0": 4
          },
          "indices": 5,
          "mode": 4,
          "material": 0
        },
        {
          "attributes": {
            "POSITION": 0,
            "NORMAL": 1
          },
          "indices": 6,
          "mode": 4,
          "material": 1
        }
      ]
    }
  ],
  "accessors": [
    {
      "bufferView": 1,
      "componentType": 5126,
      "count": 4,
      "type": "VEC3",
      "min": [
        -4.100000000000001,
        3.0003846579110144e-16,
        4.899999999999999
      ],
      "max": [
        1.8999999999999977,
        2.0000000000000004,
        4.9
      ]
    },
    {
      "bufferView": 2,
      "componentType": 5126,
      "count": 4,
      "type": "VEC3",
      "min": [
        2.4492935982947064e-16,
        -6.123233995736766e-17,
        -1.0
      ],
      "max": [
        2.4492935982947064e-16,
        -6.123233995736766e-17,
        -1.0
      ]
    },
    {
      "bufferView": 3,
      "componentType": 5126,
      "count": 94,
      "type": "VEC3",
      "min": [
        -4.100000000000001,
        -3.122849337825751e-16,
        -5.100000000000001
      ],
      "max": [
        3.900000000000003,
        2.0000000000000004,
        4.9
      ]
    },
    {
      "bufferView": 4,
      "componentType": 5126,
      "count": 94,
      "type": "VEC3",
      "min": [
        -1.0,
        -1.0,
        -1.0
      ],
      "max": [
        1.0,
        1.0,
        1.0
      ]
    },
    {
      "bufferView": 5,
      "componentType": 5126,
      "count": 94,
      "type": "VEC2",
      "min": [
        -11.15485564304462,
        -6.436570428696413
      ],
      "max": [
        11.15485564304462,
        8.144940215806358
      ]
    },
    {
      "bufferView": 7,
      "componentType": 5121,
      "count": 192,
      "type": "SCALAR"
    },
    {
      "bufferView": 6,
      "componentType": 5121,
      "count": 6,
      "type": "SCALAR"
    }
  ],
  "bufferViews": [
    {
      "buffer": 0,
      "byteLength": 15888
    },
    {
      "buffer": 0,
      "byteOffset": 15888,
      "byteLength": 48,
      "target": 34962,
      "byteStride": 12
    },
    {
      "buffer": 0,
      "byteOffset": 15936,
      "byteLength": 48,
      "target": 34962,
      "byteStride": 12
    },
    {
      "buffer": 0,
      "byteOffset": 15984,
      "byteLength": 1128,
      "target": 34962,
      "byteStride": 12
    },
    {
      "buffer": 0,
      "byteOffset": 17112,
      "byteLength": 1128,
      "target": 34962,
      "byteStride": 12
    },
    {
      "buffer": 0,
      "byteOffset": 18240,
      "byteLength": 752,
      "target": 34962,
      "byteStride": 8
    },
    {
      "buffer": 0,
      "byteOffset": 18992,
      "byteLength": 6,
      "target": 34963
    },
    {
      "buffer": 0,
      "byteOffset": 18998,
      "byteLength": 192,
      "target": 34963
    }
  ],
  "buffers": [
    {
      "uri": "data:application/octet-stream;base64,",
      "byteLength": 19190
    }
  ]
}