# Alias OBJ Model File
# Exported from SketchUp, (c) 2000-2012 Trimble Navigation Limited
# File units = meters

mtllib walls.mtl

g Mesh1 Model

usemtl Cladding_Stucco_White
v -2.2 0 -5.2
vt 4.8119 7.58239
vn 0 -1 -0
v -2.1 0 -5.1
vt 4.59318 7.43657
v -2.2 0 -0.2
vt 4.8119 0.29163
f 1/1/1 2/2/1 3/3/1

v 4 0 -5.2
vt -8.74891 7.58239
f 2/2/1 1/1/1 4/4/1

v -2.2 2 -5.2
vt 4.8119 2.9163
vn 0 0 -1
vt -8.74891 0
vt 4.8119 0
f 5/5/2 4/6/2 1/7/2

v 4 2 -5.2
vt -8.74891 2.9163
f 4/6/2 5/5/2 6/8/2

vt -4.8119 7.58239
vn 0 1 -0
v -2.1 2 -5.1
vt -4.59318 7.43657
vt 8.74891 7.58239
f 5/9/3 7/10/3 6/11/3

v -2.1 2 -0.1
vt -4.59318 0.145815
f 5/9/3 8/12/3 7/10/3

v -2.2 2 -0.2
vt -4.8119 0.29163
f 9/13/3 8/12/3 5/9/3

v -4.1 2 -0.1
vt -8.96763 0.145815
f 9/13/3 10/14/3 8/12/3

v -4.2 2 -0.2
vt -9.18635 0.29163
f 11/15/3 10/14/3 9/13/3

v -4.1 2 4.9
vt -8.96763 -7.14494
f 10/14/3 11/15/3 12/16/3

v -4.2 2 5
vt -9.18635 -7.29076
f 13/17/3 12/16/3 11/15/3

v 2 2 5
vt 4.37445 -7.29076
f 12/16/3 13/17/3 14/18/3

v -4.2 0 5
vt -9.18635 0
vn 0 0 1
vt 4.37445 2.9163
vt -9.18635 2.9163
f 15/19/4 14/20/4 13/21/4

v 2 0 5
vt 4.37445 0
f 14/20/4 15/19/4 16/22/4

vt 9.18635 -7.29076
v -4.1 0 4.9
vt 8.96763 -7.14494
vt -4.37445 -7.29076
f 15/23/1 17/24/1 16/25/1

v -4.1 0 -0.1
vt 8.96763 0.145815
f 17/24/1 15/23/1 18/26/1

v -4.2 0 -0.2
vt 9.18635 0.29163
f 19/27/1 18/26/1 15/23/1

f 18/26/1 19/27/1 3/3/1

vt 9.18635 2.9163
vt 9.18635 0
f 11/28/2 3/7/2 19/29/2

f 3/7/2 11/28/2 9/5/2

vt -11.3736 2.9163
vn -1 0 -0
vt -0.437445 0
vt -0.437445 2.9163
f 5/30/5 3/31/5 9/32/5

vt -11.3736 0
f 3/31/5 5/30/5 1/33/5

vt 10.9361 0
f 15/34/5 11/32/5 19/31/5

vt 10.9361 2.9163
f 11/32/5 15/34/5 13/35/5

v -2.1 0 -0.1
vt 4.59318 0.145815
f 18/26/1 3/3/1 20/36/1

f 20/36/1 3/3/1 2/2/1

vt 11.1549 0
vn 1 0 -0
vt 0.218723 2.9163
vt 0.218723 0
f 2/37/6 8/38/6 20/39/6

vt 11.1549 2.9163
f 8/38/6 2/37/6 7/40/6

vt -4.59318 0
v 3.9 2 -5.1
vt 8.53018 2.9163
vt -4.59318 2.9163
f 2/41/4 21/42/4 7/43/4

v 3.9 0 -5.1
vt 8.53018 0
f 21/42/4 2/41/4 22/44/4

vt -8.53018 7.43657
f 2/2/1 4/4/1 22/45/1

v 3.9 0 -1.1
vt -8.53018 1.60397
f 22/45/1 4/4/1 23/46/1

v 4 0 -1
vt -8.74891 1.45815
f 24/47/1 23/46/1 4/4/1

v 2 0 -1
vt -4.37445 1.45815
f 25/48/1 23/46/1 24/47/1

v 1.9 0 -1.1
vt -4.15573 1.60397
f 25/48/1 26/49/1 23/46/1

v 1.9 0 4.9
vt -4.15573 -7.14494
f 26/49/1 25/48/1 27/50/1

f 16/25/1 27/50/1 25/48/1

f 16/25/1 17/24/1 27/50/1

vt 8.96763 2.9163
vt -4.15573 0
vt 8.96763 0
f 12/51/2 27/52/2 17/53/2

v 1.9 2 4.9
vt -4.15573 2.9163
f 27/52/2 12/51/2 28/54/2

vt 4.15573 -7.14494
f 12/16/3 14/18/3 28/55/3

v 1.9 2 -1.1
vt 4.15573 1.60397
f 28/55/3 14/18/3 29/56/3

v 2 2 -1
vt 4.37445 1.45815
f 29/56/3 14/18/3 30/57/3

vt -10.9361 2.9163
vt 2.18723 0
vt 2.18723 2.9163
f 14/58/6 25/59/6 30/60/6

vt -10.9361 0
f 25/59/6 14/58/6 16/61/6

v 4 2 -1
vt 8.74891 2.9163
f 25/22/4 31/62/4 30/20/4

vt 8.74891 0
f 31/62/4 25/22/4 24/63/4

vt 11.3736 0
f 4/64/6 31/60/6 24/59/6

vt 11.3736 2.9163
f 31/60/6 4/64/6 6/65/6

vt 8.53018 7.43657
vt 8.74891 1.45815
f 6/11/3 21/66/3 31/67/3

f 6/11/3 7/10/3 21/66/3

v 3.9 2 -1.1
vt 8.53018 1.60397
f 32/68/3 31/67/3 21/66/3

f 32/68/3 30/57/3 31/67/3

f 29/56/3 30/57/3 32/68/3

vt -8.53018 0
vt -8.53018 2.9163
f 23/69/2 29/54/2 32/70/2

f 29/54/2 23/69/2 26/52/2

vt 10.7174 0
vt -2.40595 2.9163
vt -2.40595 0
f 27/71/5 29/72/5 26/73/5

vt 10.7174 2.9163
f 29/72/5 27/71/5 28/74/5

vt -11.1549 2.9163
f 21/75/5 23/73/5 32/72/5

vt -11.1549 0
f 23/73/5 21/75/5 22/76/5

vt -10.7174 2.9163
vt -10.7174 0
f 18/39/6 12/77/6 17/78/6

f 12/77/6 18/39/6 10/38/6

vt -8.96763 0
vt -8.96763 2.9163
f 18/79/4 8/43/4 10/80/4

f 8/43/4 18/79/4 20/41/4

g Mesh2 Model

l 4 1

l 24 4

l 25 24

l 16 25

l 15 16

l 19 15

l 3 19

l 1 3

l 1 5

l 5 9

l 6 5

l 4 6

l 31 6

l 24 31

l 30 31

l 25 30

l 14 30

l 16 14

l 13 14

l 15 13

l 11 13

l 19 11

l 9 11

l 3 9

g Mesh3 Model

l 17 27

l 18 17

l 20 18

l 2 20

l 22 2

l 23 22

l 23 26

l 23 32

l 32 21

l 32 29

l 26 29

l 26 27

l 27 28

l 12 28

l 10 12

l 8 10

l 7 8

l 2 7

l 21 7

l 22 21

l 20 8

l 18 10

l 17 12

l 29 28

