# Alias OBJ Model File
# Exported from SketchUp, (c) 2000-2012 Trimble Navigation Limited
# File units = meters

mtllib floors.mtl

g Mesh1 Model

usemtl FrontColor
v -1.2906 0 -3.21432
vt 50.8111 126.548
vn 0 -1 -0
v -2.6306 0 -1.95432
vt 103.567 76.9419
v -2.6306 0 -3.21432
vt 103.567 126.548
f 1/1/1 2/2/1 3/3/1

v -1.8806 0 -1.95432
vt 74.0395 76.9419
f 2/2/1 1/1/1 4/4/1

usemtl _
vn -0 1 0
f 3/3/2 2/2/2 1/1/2

f 4/4/2 1/1/2 2/2/2

usemtl FrontColor
v -1.8806 0 0.855675
vt 74.0395 -33.688
f 4/4/1 1/1/1 5/5/1

usemtl _
f 5/5/2 1/1/2 4/4/2

usemtl FrontColor
v -1.2906 0 -2.69432
vt 50.8111 106.076
f 6/6/1 5/5/1 1/1/1

v -0.382434 0 4.49123
vt 15.0565 -176.82
f 7/7/1 5/5/1 6/6/1

v -2.1106 0 5.09568
vt 83.0946 -200.617
f 8/8/1 5/5/1 7/7/1

v -2.1106 0 0.855675
vt 83.0946 -33.688
f 5/5/1 8/8/1 9/9/1

usemtl _
f 9/9/2 8/8/2 5/5/2

f 7/7/2 5/5/2 8/8/2

f 6/6/2 5/5/2 7/7/2

f 1/1/2 5/5/2 6/6/2

usemtl FrontColor
v -0.382434 0 -1.09877
vt 15.0565 43.2585
f 7/7/1 6/6/1 10/10/1

usemtl _
f 10/10/2 6/6/2 7/7/2

usemtl FrontColor
v 1.5394 0 -2.69432
vt -60.6062 106.076
f 11/11/1 10/10/1 6/6/1

v 1.57757 0 -1.09877
vt -62.1089 43.2585
f 10/10/1 11/11/1 12/12/1

usemtl _
f 6/6/2 10/10/2 11/11/2

f 12/12/2 11/11/2 10/10/2

usemtl FrontColor
v 2.5494 0 -2.94432
vt -100.37 115.918
f 11/11/1 13/13/1 12/12/1

v 1.5394 0 -2.94432
vt -60.6062 115.918
f 13/13/1 11/11/1 14/14/1

usemtl _
f 14/14/2 11/11/2 13/13/2

f 12/12/2 13/13/2 11/11/2

usemtl FrontColor
v 2.5494 0 5.09568
vt -100.37 -200.617
f 15/15/1 12/12/1 13/13/1

v 1.54757 0 4.49123
vt -60.9278 -176.82
f 15/15/1 16/16/1 12/12/1

f 15/15/1 7/7/1 16/16/1

f 8/8/1 7/7/1 15/15/1

usemtl _
f 15/15/2 7/7/2 8/8/2

f 16/16/2 7/7/2 15/15/2

f 12/12/2 16/16/2 15/15/2

f 13/13/2 12/12/2 15/15/2

usemtl FrontColor
v -0.382434 0 -0.248766
vt 15.0565 9.79394
f 7/7/1 10/10/1 17/17/1

usemtl _
f 17/17/2 10/10/2 7/7/2

usemtl FrontColor
v -0.382434 0 0.261234
vt 15.0565 -10.2848
f 7/7/1 17/17/1 18/18/1

usemtl _
f 18/18/2 17/17/2 7/7/2

usemtl FrontColor
v 0.347566 0 -0.248766
vt -13.6837 9.79394
f 19/19/1 18/18/1 17/17/1

v 0.347566 0 0.261234
vt -13.6837 -10.2848
f 18/18/1 19/19/1 20/20/1

usemtl _
f 17/17/2 18/18/2 19/19/2

f 20/20/2 19/19/2 18/18/2

usemtl FrontColor
v -0.382434 0 1.08123
vt 15.0565 -42.5683
f 7/7/1 18/18/1 21/21/1

usemtl _
f 21/21/2 18/18/2 7/7/2

usemtl FrontColor
v -0.382434 0 2.00123
vt 15.0565 -78.7887
f 7/7/1 21/21/1 22/22/1

usemtl _
f 22/22/2 21/21/2 7/7/2

usemtl FrontColor
v 0.697566 0 1.08123
vt -27.4632 -42.5683
f 23/23/1 22/22/1 21/21/1

v 0.697566 0 2.00123
vt -27.4632 -78.7887
f 22/22/1 23/23/1 24/24/1

usemtl _
f 21/21/2 22/22/2 23/23/2

f 24/24/2 23/23/2 22/22/2

