# Alias OBJ Model File
# Exported from SketchUp, (c) 2000-2012 Trimble Navigation Limited
# File units = meters

mtllib floors.mtl

g Mesh1 Model

usemtl Polished_Concrete_Old
v 0.697566 8.01483e-32 2.00123
vt 0.762867 -2.18858
vn 2.62691e-18 1 9.97683e-19
v -0.382434 8.01483e-32 1.08123
vt -0.418235 -1.18245
v -0.382434 8.01483e-32 2.00123
vt -0.418235 -2.18858
f 1/1/1 2/2/1 3/3/1

v 0.697566 8.01483e-32 1.08123
vt 0.762867 -1.18245
f 2/2/1 1/1/1 4/4/1

v -0.382434 8.01483e-32 -1.09877
vt -0.418235 1.20163
f 5/5/1 3/3/1 2/2/1

v -0.382434 8.01483e-32 4.49123
vt -0.418235 -4.91167
f 5/5/1 6/6/1 3/3/1

v -0.390557 1.82965e-32 5.09568
vt -0.427119 -5.5727
f 5/5/1 7/7/1 6/6/1

v -1.2906 8.01483e-32 -2.69432
vt -1.41142 2.94655
f 8/8/1 7/7/1 5/5/1

v -1.8806 4.51195e-17 -1.70674
vt -2.05665 1.86651
f 9/9/1 7/7/1 8/8/1

v -1.8806 8.01483e-32 0.855675
vt -2.05665 -0.935778
f 10/10/1 7/7/1 9/9/1

v -2.1106 8.01483e-32 0.855675
vt -2.30818 -0.935778
f 11/11/1 7/7/1 10/10/1

v -2.1106 0 4.73999
vt -2.30818 -5.18372
f 12/12/1 7/7/1 11/11/1

v -2.86056 0 4.73999
vt -3.12834 -5.18372
f 13/13/1 7/7/1 12/12/1

v -2.86056 0 5.09568
vt -3.12834 -5.5727
f 7/7/1 13/13/1 14/14/1

v -1.2906 8.01483e-32 -3.21432
vt -1.41142 3.51523
f 15/15/1 9/9/1 8/8/1

v -2.6306 8.01483e-32 -3.21432
vt -2.87686 3.51523
f 16/16/1 9/9/1 15/15/1

v -2.6306 8.01483e-32 -1.95432
vt -2.87686 2.13728
f 17/17/1 9/9/1 16/16/1

v -2.86056 4.51195e-17 -1.95432
vt -3.12834 2.13728
f 18/18/1 9/9/1 17/17/1

v -2.86056 4.51195e-17 -1.70674
vt -3.12834 1.86651
f 9/9/1 18/18/1 19/19/1

v 1.5394 8.01483e-32 -2.69432
vt 1.6835 2.94655
f 8/8/1 5/5/1 20/20/1

v 1.57757 8.01483e-32 -1.09877
vt 1.72525 1.20163
f 20/20/1 5/5/1 21/21/1

v 1.5394 8.01483e-32 -2.94432
vt 1.6835 3.21995
f 20/20/1 21/21/1 22/22/1

v 2.5494 8.01483e-32 -2.94432
vt 2.78805 3.21995
f 22/22/1 21/21/1 23/23/1

v 2.5494 8.01483e-32 5.09568
vt 2.78805 -5.5727
f 23/23/1 21/21/1 24/24/1

v 1.54757 8.01483e-32 4.49123
vt 1.69244 -4.91167
f 25/25/1 24/24/1 21/21/1

v -0.290557 0 5.09568
vt -0.317758 -5.5727
f 25/25/1 26/26/1 24/24/1

f 6/6/1 26/26/1 25/25/1

v -0.290557 0 5.59765
vt -0.317758 -6.12166
f 6/6/1 27/27/1 26/26/1

f 7/7/1 27/27/1 6/6/1

v -0.390557 8.01483e-32 5.59765
vt -0.427119 -6.12166
f 27/27/1 7/7/1 28/28/1

v -0.382434 8.01483e-32 0.261234
vt -0.418235 -0.285689
f 5/5/1 2/2/1 29/29/1

v -0.382434 8.01483e-32 -0.248766
vt -0.418235 0.272054
f 5/5/1 29/29/1 30/30/1

v 0.347566 8.01483e-32 0.261234
vt 0.380103 -0.285689
f 31/31/1 30/30/1 29/29/1

v 0.347566 8.01483e-32 -0.248766
vt 0.380103 0.272054
f 30/30/1 31/31/1 32/32/1

