o wall_0
v -2.4970096349716187 -1.1092270329931937e-15 5.795514452457428
v -2.4970096349716187 8.774878845239307e-16 -3.1518541097640993
v -2.4970096349716187 0.9569378197193155 -3.1518541097640993
v -2.4970096349716187 -1.1092270329931937e-15 5.795514452457428
v -2.4970096349716187 0.9569378197193155 -3.1518541097640993
v -2.4970096349716187 0.9569378197193135 5.795514452457428
vt 18.700000762939453 0
vt 0 0
vt 0 2
vt 18.700000762939453 0
vt 0 2
vt 18.700000762939453 2
vn 0.1 0 0
vn 0.1 0 0
vn 0.1 0 0
vn 0.1 0 0
vn 0.1 0 0
vn 0.1 0 0
f 1/1/1 2/2/2 3/3/3
f 4/4/4 5/5/5 6/6/6
